<mxfile host="app.diagrams.net" agent="Mozilla/5.0 (X11; Linux x86_64; rv:134.0) Gecko/20100101 Firefox/134.0" version="25.0.3">
  <diagram name="Page-1" id="_64ufnM-X4IV8vlH-ZPl">
    <mxGraphModel dx="655" dy="494" grid="1" gridSize="10" guides="1" tooltips="1" connect="1" arrows="1" fold="1" page="1" pageScale="1" pageWidth="850" pageHeight="1100" math="0" shadow="0">
      <root>
        <mxCell id="0" />
        <mxCell id="1" parent="0" />
        <mxCell id="b5wdQTQ81oaLnNMWkXeV-1" value="&lt;div&gt;User&lt;/div&gt;" style="shape=umlActor;verticalLabelPosition=bottom;verticalAlign=top;html=1;outlineConnect=0;" vertex="1" parent="1">
          <mxGeometry x="80" y="80" width="40" height="80" as="geometry" />
        </mxCell>
        <mxCell id="b5wdQTQ81oaLnNMWkXeV-2" value="Application Interface" style="rounded=0;whiteSpace=wrap;html=1;" vertex="1" parent="1">
          <mxGeometry x="200" y="120" width="120" height="40" as="geometry" />
        </mxCell>
        <mxCell id="b5wdQTQ81oaLnNMWkXeV-4" value="" style="rounded=0;whiteSpace=wrap;html=1;fillColor=#fff2cc;strokeColor=#d6b656;" vertex="1" parent="1">
          <mxGeometry x="90" y="200" width="20" height="160" as="geometry" />
        </mxCell>
        <mxCell id="b5wdQTQ81oaLnNMWkXeV-5" value="" style="endArrow=none;dashed=1;html=1;dashPattern=1 3;strokeWidth=2;rounded=0;entryX=0.5;entryY=1;entryDx=0;entryDy=0;endSize=6;jumpSize=6;" edge="1" parent="1" target="b5wdQTQ81oaLnNMWkXeV-2">
          <mxGeometry width="50" height="50" relative="1" as="geometry">
            <mxPoint x="260" y="400" as="sourcePoint" />
            <mxPoint x="260" y="200" as="targetPoint" />
          </mxGeometry>
        </mxCell>
        <mxCell id="b5wdQTQ81oaLnNMWkXeV-7" value="Compression Utility" style="rounded=0;whiteSpace=wrap;html=1;" vertex="1" parent="1">
          <mxGeometry x="360" y="120" width="120" height="40" as="geometry" />
        </mxCell>
        <mxCell id="b5wdQTQ81oaLnNMWkXeV-9" value="Encryption Utility" style="rounded=0;whiteSpace=wrap;html=1;" vertex="1" parent="1">
          <mxGeometry x="520" y="120" width="120" height="40" as="geometry" />
        </mxCell>
        <mxCell id="b5wdQTQ81oaLnNMWkXeV-11" value="Embedding Utility" style="rounded=0;whiteSpace=wrap;html=1;" vertex="1" parent="1">
          <mxGeometry x="680" y="120" width="120" height="40" as="geometry" />
        </mxCell>
        <mxCell id="b5wdQTQ81oaLnNMWkXeV-15" value="" style="rounded=0;whiteSpace=wrap;html=1;fillColor=#fff2cc;strokeColor=#d6b656;" vertex="1" parent="1">
          <mxGeometry x="250" y="200" width="20" height="160" as="geometry" />
        </mxCell>
        <mxCell id="b5wdQTQ81oaLnNMWkXeV-16" value="" style="endArrow=classic;html=1;rounded=0;entryX=0;entryY=0.125;entryDx=0;entryDy=0;entryPerimeter=0;exitX=1;exitY=0.125;exitDx=0;exitDy=0;exitPerimeter=0;" edge="1" parent="1" source="b5wdQTQ81oaLnNMWkXeV-4" target="b5wdQTQ81oaLnNMWkXeV-15">
          <mxGeometry width="50" height="50" relative="1" as="geometry">
            <mxPoint x="120" y="220" as="sourcePoint" />
            <mxPoint x="230" y="220" as="targetPoint" />
          </mxGeometry>
        </mxCell>
        <mxCell id="b5wdQTQ81oaLnNMWkXeV-17" value="Embed Files Request" style="edgeLabel;html=1;align=center;verticalAlign=middle;resizable=0;points=[];" vertex="1" connectable="0" parent="b5wdQTQ81oaLnNMWkXeV-16">
          <mxGeometry x="-0.0095" relative="1" as="geometry">
            <mxPoint as="offset" />
          </mxGeometry>
        </mxCell>
        <mxCell id="b5wdQTQ81oaLnNMWkXeV-18" value="" style="rounded=0;whiteSpace=wrap;html=1;fillColor=#fff2cc;strokeColor=#d6b656;" vertex="1" parent="1">
          <mxGeometry x="410" y="200" width="20" height="40" as="geometry" />
        </mxCell>
        <mxCell id="b5wdQTQ81oaLnNMWkXeV-19" value="" style="rounded=0;whiteSpace=wrap;html=1;fillColor=#fff2cc;strokeColor=#d6b656;" vertex="1" parent="1">
          <mxGeometry x="570" y="200" width="20" height="40" as="geometry" />
        </mxCell>
        <mxCell id="b5wdQTQ81oaLnNMWkXeV-40" style="edgeStyle=orthogonalEdgeStyle;rounded=0;orthogonalLoop=1;jettySize=auto;html=1;entryX=1;entryY=0.75;entryDx=0;entryDy=0;" edge="1" parent="1">
          <mxGeometry relative="1" as="geometry">
            <mxPoint x="730" y="300.24" as="sourcePoint" />
            <mxPoint x="590" y="300.24" as="targetPoint" />
          </mxGeometry>
        </mxCell>
        <mxCell id="b5wdQTQ81oaLnNMWkXeV-42" value="Decrypt Files" style="edgeLabel;html=1;align=center;verticalAlign=middle;resizable=0;points=[];" vertex="1" connectable="0" parent="b5wdQTQ81oaLnNMWkXeV-40">
          <mxGeometry x="-0.0095" y="-2" relative="1" as="geometry">
            <mxPoint y="2" as="offset" />
          </mxGeometry>
        </mxCell>
        <mxCell id="b5wdQTQ81oaLnNMWkXeV-20" value="" style="rounded=0;whiteSpace=wrap;html=1;fillColor=#fff2cc;strokeColor=#d6b656;" vertex="1" parent="1">
          <mxGeometry x="730" y="200" width="20" height="160" as="geometry" />
        </mxCell>
        <mxCell id="b5wdQTQ81oaLnNMWkXeV-21" value="" style="endArrow=classic;html=1;rounded=0;entryX=0;entryY=0.25;entryDx=0;entryDy=0;" edge="1" parent="1">
          <mxGeometry width="50" height="50" relative="1" as="geometry">
            <mxPoint x="110" y="259.76" as="sourcePoint" />
            <mxPoint x="250" y="259.76" as="targetPoint" />
          </mxGeometry>
        </mxCell>
        <mxCell id="b5wdQTQ81oaLnNMWkXeV-22" value="Extract Files Request" style="edgeLabel;html=1;align=center;verticalAlign=middle;resizable=0;points=[];" vertex="1" connectable="0" parent="b5wdQTQ81oaLnNMWkXeV-21">
          <mxGeometry x="-0.0095" relative="1" as="geometry">
            <mxPoint as="offset" />
          </mxGeometry>
        </mxCell>
        <mxCell id="b5wdQTQ81oaLnNMWkXeV-23" value="" style="endArrow=classic;html=1;rounded=0;entryX=0;entryY=0.25;entryDx=0;entryDy=0;" edge="1" parent="1">
          <mxGeometry width="50" height="50" relative="1" as="geometry">
            <mxPoint x="270" y="219.88" as="sourcePoint" />
            <mxPoint x="410" y="219.88" as="targetPoint" />
          </mxGeometry>
        </mxCell>
        <mxCell id="b5wdQTQ81oaLnNMWkXeV-24" value="Compress Files" style="edgeLabel;html=1;align=center;verticalAlign=middle;resizable=0;points=[];" vertex="1" connectable="0" parent="b5wdQTQ81oaLnNMWkXeV-23">
          <mxGeometry x="-0.0095" relative="1" as="geometry">
            <mxPoint as="offset" />
          </mxGeometry>
        </mxCell>
        <mxCell id="b5wdQTQ81oaLnNMWkXeV-27" value="" style="endArrow=classic;html=1;rounded=0;entryX=0;entryY=0.25;entryDx=0;entryDy=0;" edge="1" parent="1">
          <mxGeometry width="50" height="50" relative="1" as="geometry">
            <mxPoint x="430" y="219.88" as="sourcePoint" />
            <mxPoint x="570" y="219.88" as="targetPoint" />
          </mxGeometry>
        </mxCell>
        <mxCell id="b5wdQTQ81oaLnNMWkXeV-28" value="Encrypt Files" style="edgeLabel;html=1;align=center;verticalAlign=middle;resizable=0;points=[];" vertex="1" connectable="0" parent="b5wdQTQ81oaLnNMWkXeV-27">
          <mxGeometry x="-0.0095" relative="1" as="geometry">
            <mxPoint as="offset" />
          </mxGeometry>
        </mxCell>
        <mxCell id="b5wdQTQ81oaLnNMWkXeV-31" value="" style="endArrow=classic;html=1;rounded=0;entryX=0;entryY=0.25;entryDx=0;entryDy=0;" edge="1" parent="1">
          <mxGeometry width="50" height="50" relative="1" as="geometry">
            <mxPoint x="590" y="219.88" as="sourcePoint" />
            <mxPoint x="730" y="219.88" as="targetPoint" />
          </mxGeometry>
        </mxCell>
        <mxCell id="b5wdQTQ81oaLnNMWkXeV-32" value="Embed Files" style="edgeLabel;html=1;align=center;verticalAlign=middle;resizable=0;points=[];" vertex="1" connectable="0" parent="b5wdQTQ81oaLnNMWkXeV-31">
          <mxGeometry x="-0.0095" relative="1" as="geometry">
            <mxPoint as="offset" />
          </mxGeometry>
        </mxCell>
        <mxCell id="b5wdQTQ81oaLnNMWkXeV-36" value="" style="endArrow=classic;html=1;rounded=0;entryX=0;entryY=0.833;entryDx=0;entryDy=0;entryPerimeter=0;" edge="1" parent="1">
          <mxGeometry width="50" height="50" relative="1" as="geometry">
            <mxPoint x="270" y="340.24" as="sourcePoint" />
            <mxPoint x="730" y="340.19999999999993" as="targetPoint" />
          </mxGeometry>
        </mxCell>
        <mxCell id="b5wdQTQ81oaLnNMWkXeV-37" value="Extract Files" style="edgeLabel;html=1;align=center;verticalAlign=middle;resizable=0;points=[];" vertex="1" connectable="0" parent="b5wdQTQ81oaLnNMWkXeV-36">
          <mxGeometry x="-0.0095" relative="1" as="geometry">
            <mxPoint as="offset" />
          </mxGeometry>
        </mxCell>
        <mxCell id="b5wdQTQ81oaLnNMWkXeV-43" style="edgeStyle=orthogonalEdgeStyle;rounded=0;orthogonalLoop=1;jettySize=auto;html=1;entryX=1;entryY=0.75;entryDx=0;entryDy=0;" edge="1" parent="1">
          <mxGeometry relative="1" as="geometry">
            <mxPoint x="570" y="300" as="sourcePoint" />
            <mxPoint x="430" y="300" as="targetPoint" />
          </mxGeometry>
        </mxCell>
        <mxCell id="b5wdQTQ81oaLnNMWkXeV-44" value="Decompress Files" style="edgeLabel;html=1;align=center;verticalAlign=middle;resizable=0;points=[];" vertex="1" connectable="0" parent="b5wdQTQ81oaLnNMWkXeV-43">
          <mxGeometry x="-0.0095" y="-2" relative="1" as="geometry">
            <mxPoint y="2" as="offset" />
          </mxGeometry>
        </mxCell>
        <mxCell id="b5wdQTQ81oaLnNMWkXeV-46" style="edgeStyle=orthogonalEdgeStyle;rounded=0;orthogonalLoop=1;jettySize=auto;html=1;entryX=1;entryY=0.75;entryDx=0;entryDy=0;" edge="1" parent="1">
          <mxGeometry relative="1" as="geometry">
            <mxPoint x="410" y="300" as="sourcePoint" />
            <mxPoint x="270" y="300" as="targetPoint" />
          </mxGeometry>
        </mxCell>
        <mxCell id="b5wdQTQ81oaLnNMWkXeV-47" value="Return Files" style="edgeLabel;html=1;align=center;verticalAlign=middle;resizable=0;points=[];" vertex="1" connectable="0" parent="b5wdQTQ81oaLnNMWkXeV-46">
          <mxGeometry x="-0.0095" y="-2" relative="1" as="geometry">
            <mxPoint y="2" as="offset" />
          </mxGeometry>
        </mxCell>
        <mxCell id="b5wdQTQ81oaLnNMWkXeV-48" value="" style="rounded=0;whiteSpace=wrap;html=1;fillColor=#fff2cc;strokeColor=#d6b656;" vertex="1" parent="1">
          <mxGeometry x="410" y="280" width="20" height="40" as="geometry" />
        </mxCell>
        <mxCell id="b5wdQTQ81oaLnNMWkXeV-49" value="" style="rounded=0;whiteSpace=wrap;html=1;fillColor=#fff2cc;strokeColor=#d6b656;" vertex="1" parent="1">
          <mxGeometry x="570" y="280" width="20" height="40" as="geometry" />
        </mxCell>
        <mxCell id="b5wdQTQ81oaLnNMWkXeV-50" value="Return Files" style="endArrow=classic;html=1;rounded=0;entryX=1;entryY=0.375;entryDx=0;entryDy=0;entryPerimeter=0;" edge="1" parent="1" target="b5wdQTQ81oaLnNMWkXeV-15">
          <mxGeometry width="50" height="50" relative="1" as="geometry">
            <mxPoint x="730" y="260" as="sourcePoint" />
            <mxPoint x="300" y="260" as="targetPoint" />
          </mxGeometry>
        </mxCell>
        <mxCell id="b5wdQTQ81oaLnNMWkXeV-53" value="" style="endArrow=none;dashed=1;html=1;dashPattern=1 3;strokeWidth=2;rounded=0;entryX=0.5;entryY=1;entryDx=0;entryDy=0;endSize=6;jumpSize=6;" edge="1" parent="1">
          <mxGeometry width="50" height="50" relative="1" as="geometry">
            <mxPoint x="419.58000000000004" y="400" as="sourcePoint" />
            <mxPoint x="419.58000000000004" y="160" as="targetPoint" />
          </mxGeometry>
        </mxCell>
        <mxCell id="b5wdQTQ81oaLnNMWkXeV-54" value="" style="endArrow=none;dashed=1;html=1;dashPattern=1 3;strokeWidth=2;rounded=0;entryX=0.5;entryY=1;entryDx=0;entryDy=0;endSize=6;jumpSize=6;" edge="1" parent="1">
          <mxGeometry width="50" height="50" relative="1" as="geometry">
            <mxPoint x="580" y="400" as="sourcePoint" />
            <mxPoint x="580" y="160" as="targetPoint" />
          </mxGeometry>
        </mxCell>
        <mxCell id="b5wdQTQ81oaLnNMWkXeV-55" value="" style="endArrow=none;dashed=1;html=1;dashPattern=1 3;strokeWidth=2;rounded=0;entryX=0.5;entryY=1;entryDx=0;entryDy=0;endSize=6;jumpSize=6;" edge="1" parent="1">
          <mxGeometry width="50" height="50" relative="1" as="geometry">
            <mxPoint x="739.58" y="400" as="sourcePoint" />
            <mxPoint x="739.58" y="160" as="targetPoint" />
          </mxGeometry>
        </mxCell>
      </root>
    </mxGraphModel>
  </diagram>
</mxfile>
